<svg width="269" height="155" viewBox="0 0 269 155" fill="none" xmlns="http://www.w3.org/2000/svg">
<path d="M379.614 114.134C405.828 97.3671 428.577 74.9761 445.045 48.6893L445.046 48.6878C461.667 22.09 471.835 -8.05951 475.735 -38.9378C484 -100.843 467.366 -165.22 432.36 -216.801C397.965 -268.864 343.282 -308.326 281.485 -319.237C250.743 -325.005 218.796 -323.555 188.613 -315.381C158.264 -307.671 130.01 -293.085 105.398 -273.998C55.6968 -236.439 20.3445 -180.512 7.22609 -119.863C0.507615 -89.6004 -0.258557 -57.9563 5.70521 -27.282C11.3611 3.25984 24.5297 32.8024 43.1542 57.6112C80.4128 108.014 139.761 139.571 200.801 149.367C261.84 159.162 327.341 148.135 379.614 114.134ZM441.088 46.0301C425.174 72.0785 403.37 94.4596 377.829 111.147C273.69 177.822 122.142 152.118 48.0338 53.9301C29.6759 29.4773 17.0118 1.28285 10.9782 -28.6505C4.94361 -58.5888 5.54168 -89.5105 11.869 -119.557L11.8694 -119.559C24.3697 -179.334 59.9457 -233.557 108.623 -270.532L108.629 -270.536C132.802 -289.092 160.54 -303.171 189.993 -310.612L190.004 -310.615C219.153 -318.21 250.19 -319.48 280.18 -313.947L280.188 -313.946C340.304 -303.193 393.382 -264.728 426.912 -213.878L426.917 -213.871C460.619 -163.303 477.657 -100.892 470.421 -40.0772C466.57 -9.58199 456.996 19.9915 441.088 46.0301Z" fill="url(#paint0_linear_1023_14942)" stroke="url(#paint1_linear_1023_14942)" stroke-width="3"/>
<defs>
<linearGradient id="paint0_linear_1023_14942" x1="119.486" y1="-303.828" x2="355.811" y2="145.948" gradientUnits="userSpaceOnUse">
<stop stop-color="#262A95"/>
<stop offset="1" stop-color="#DD2166"/>
</linearGradient>
<linearGradient id="paint1_linear_1023_14942" x1="119.486" y1="-303.828" x2="355.811" y2="145.948" gradientUnits="userSpaceOnUse">
<stop stop-color="#262A95"/>
<stop offset="1" stop-color="#DD2166"/>
</linearGradient>
</defs>
</svg>
