<svg width="306" height="51" viewBox="0 0 306 51" fill="none" xmlns="http://www.w3.org/2000/svg">
<path d="M141.815 375.132C166.544 370.985 190.927 363.588 213.351 353.169L213.361 353.165C236.026 342.436 257.817 327.958 274.659 308.078L274.666 308.07L274.673 308.061C290.98 288.253 301.776 263.146 303.711 237.622C305.64 212.161 300.405 186.691 292.14 163.397L292.136 163.386C275.009 116.332 245.358 74.9664 207.973 42.9878L207.963 42.98L207.954 42.9724C189.012 27.2858 167.251 13.8756 143.374 6.83424C119.474 -0.213797 92.9907 -0.257676 68.8623 9.08091C45.066 18.0754 23.9551 33.5805 5.88954 51.3439C-12.1758 69.1071 -27.7778 89.2519 -41.5754 110.76L-41.5813 110.77L-41.5871 110.779C-55.1029 132.545 -65.9853 155.847 -74.3552 179.599L-74.3587 179.609L-74.3621 179.619C-82.4307 203.595 -88.1993 228.956 -88.2044 254.357C-88.5066 279.546 -82.1442 305.546 -66.1435 325.5C-50.7273 345.469 -28.5809 359.122 -5.43762 367.619L-5.43025 367.621C41.3718 384.527 93.054 383.869 141.815 375.132ZM211.962 349.374C189.57 359.974 165.685 366.991 141.237 371.637C92.7244 379.781 41.8042 379.539 -3.79378 362.802C-26.3432 354.128 -47.1116 340.909 -61.2511 321.676L-61.258 321.666L-61.265 321.657C-75.6357 302.733 -82.5855 278.357 -82.5245 253.983L-82.5245 253.974L-82.5246 253.965C-82.758 229.314 -77.326 204.604 -69.5568 181.116C-61.4883 157.852 -50.9937 134.527 -37.8497 113.283C-24.69 92.0144 -9.23359 72.0664 8.92561 54.7306L8.93362 54.723L8.94151 54.7152C26.8118 37.1437 47.3333 22.2394 70.6666 13.9755L70.6756 13.9723L70.6845 13.969C93.6445 5.5065 119.208 5.82844 142.023 12.7888C165.158 19.9865 185.734 32.9937 204.179 48.2827C240.594 79.4814 269.633 120.188 286.217 165.956L286.22 165.966C294.62 188.665 299.158 213.25 297.74 237.58C296.329 261.805 286.281 285.716 270.858 305.018C255.45 324.3 234.364 338.77 211.962 349.374Z" fill="url(#paint0_linear_1023_14945)" stroke="url(#paint1_linear_1023_14945)" stroke-width="3"/>
<defs>
<linearGradient id="paint0_linear_1023_14945" x1="306.016" y1="147.651" x2="-92.7687" y2="251.112" gradientUnits="userSpaceOnUse">
<stop stop-color="#262A95"/>
<stop offset="1" stop-color="#DD2166"/>
</linearGradient>
<linearGradient id="paint1_linear_1023_14945" x1="306.016" y1="147.651" x2="-92.7687" y2="251.112" gradientUnits="userSpaceOnUse">
<stop stop-color="#262A95"/>
<stop offset="1" stop-color="#DD2166"/>
</linearGradient>
</defs>
</svg>
