<svg width="375" height="150" viewBox="0 0 375 150" fill="none" xmlns="http://www.w3.org/2000/svg">
<path d="M373.447 373.823C391.71 348.628 404.69 319.466 410.399 288.977L410.4 288.975C416.137 258.141 414.57 226.361 406.903 196.197C391.946 135.56 352.912 81.7317 301.462 46.5342C250.404 10.6639 185.075 -6.05585 123.57 6.3979C92.8489 12.2776 63.6472 25.3151 38.5467 43.9655C13.1226 62.2447 -7.83511 86.1556 -23.758 112.924C-56.2711 166.061 -68.7114 231.042 -58.7332 292.284C-58.7333 292.283 -58.7333 292.283 -58.7334 292.283L373.447 373.823ZM373.447 373.823C337.238 424.592 280.313 458.818 219.922 472.033C159.53 485.248 92.7507 477.592 39.6349 444.315C13.2252 428.04 -9.83877 405.363 -26.2765 379.008L373.447 373.823ZM405.744 287.95C400.463 318.015 388.359 346.822 370.693 371.698C298.167 471.849 147.722 503.372 42.8295 439.104C16.7981 423.063 -5.30309 401.456 -21.8697 375.805C-38.4391 350.15 -49.1954 321.154 -54.2993 290.876L-54.2997 290.874C-64.5351 230.669 -51.2633 167.19 -19.488 114.969L-19.4841 114.963C-3.77588 88.8499 16.8884 65.5986 41.5771 47.8982L41.5861 47.8916C65.9353 30.1591 94.3561 17.6211 124.291 11.7987L124.299 11.7971C184.182 -0.189074 247.652 16.1896 297.462 51.2476L297.468 51.2518C347.334 85.9841 386.025 137.835 401.54 197.081C409.112 226.871 411.022 257.897 405.744 287.95Z" fill="url(#paint0_linear_1023_14943)" stroke="url(#paint1_linear_1023_14943)" stroke-width="3"/>
<defs>
<linearGradient id="paint0_linear_1023_14943" x1="-21.5598" y1="80.0067" x2="362.934" y2="412.139" gradientUnits="userSpaceOnUse">
<stop stop-color="#262A95"/>
<stop offset="1" stop-color="#DD2166"/>
</linearGradient>
<linearGradient id="paint1_linear_1023_14943" x1="-21.5598" y1="80.0067" x2="362.934" y2="412.139" gradientUnits="userSpaceOnUse">
<stop stop-color="#262A95"/>
<stop offset="1" stop-color="#DD2166"/>
</linearGradient>
</defs>
</svg>
