<svg width="323" height="131" viewBox="0 0 323 131" fill="none" xmlns="http://www.w3.org/2000/svg">
<path d="M181.342 122.745C205.873 127.933 231.272 129.969 255.953 128.477L255.964 128.476C280.983 126.783 306.56 121.281 329.508 108.941L329.517 108.936L329.527 108.931C351.95 96.4617 371.184 77.0449 382.322 53.999C393.433 31.0087 397.879 5.389 398.709 -19.3134L398.71 -19.3256C399.985 -69.3835 387.523 -118.729 364.429 -162.168L364.424 -162.179L364.418 -162.189C352.528 -183.718 337.181 -204.161 317.536 -219.449C297.872 -234.752 273.241 -244.482 247.369 -244.619C221.931 -244.954 196.611 -238.247 173.299 -228.325C149.988 -218.402 128.097 -205.362 107.387 -190.393L107.378 -190.386L107.369 -190.38C86.8274 -175.067 68.1746 -157.363 51.6949 -138.319L51.6879 -138.311L51.6811 -138.303C35.4003 -118.942 20.7531 -97.4493 11.4551 -73.8109C1.95842 -50.4792 -1.6327 -23.9535 5.95869 0.470412C13.0001 24.6955 28.6162 45.5043 47.0464 61.8789L47.0523 61.8841C84.4246 94.7405 132.765 113.036 181.342 122.745ZM256.049 124.436C231.331 126.109 206.535 123.901 182.082 119.281C133.953 109.111 86.6518 90.2567 50.3386 57.9973C32.5256 41.6754 18.0333 21.7748 11.9109 -1.29843L11.9079 -1.3097L11.9047 -1.32094C5.45401 -24.1911 7.90389 -49.4192 16.8781 -72.0812L16.8814 -72.0896L16.8846 -72.098C25.686 -95.125 39.7819 -116.135 55.6059 -135.153C71.6263 -153.852 89.9268 -171.72 109.932 -186.682C129.96 -201.662 151.643 -214.572 174.886 -224.062L174.896 -224.066L174.906 -224.071C197.966 -233.886 222.518 -240.249 247.257 -239.403L247.267 -239.403L247.276 -239.403C271.74 -238.879 295.414 -229.226 314.101 -214.401C332.998 -199.239 347.389 -179.606 358.961 -158.628C381.438 -116.27 393.57 -67.7614 392.26 -19.099L392.26 -19.0889C391.773 5.11031 387.001 29.6501 376.781 51.7756C366.605 73.8045 348.505 92.3819 327.09 104.703C305.696 117.011 280.777 122.763 256.049 124.436Z" fill="url(#paint0_linear_1023_14944)" stroke="url(#paint1_linear_1023_14944)" stroke-width="3"/>
<defs>
<linearGradient id="paint0_linear_1023_14944" x1="417.384" y1="-28.8916" x2="8.39462" y2="-78.5013" gradientUnits="userSpaceOnUse">
<stop stop-color="#262A95"/>
<stop offset="1" stop-color="#DD2166"/>
</linearGradient>
<linearGradient id="paint1_linear_1023_14944" x1="417.384" y1="-28.8916" x2="8.39462" y2="-78.5013" gradientUnits="userSpaceOnUse">
<stop stop-color="#262A95"/>
<stop offset="1" stop-color="#DD2166"/>
</linearGradient>
</defs>
</svg>
