<svg width="217" height="57" viewBox="0 0 217 57" fill="none" xmlns="http://www.w3.org/2000/svg">
<path d="M40.3972 7.35408C45.9049 10.6275 49.9007 16.1673 51.7726 22.2466C53.6445 28.3259 53.4285 35.2325 50.4766 40.9521C49.0367 43.7939 46.9128 46.3479 44.357 48.2544C41.8011 50.1969 38.8493 51.5639 35.7534 52.3193C29.5618 53.8661 22.7942 53.1467 17.0705 50.2689C14.1906 48.866 11.5628 46.9235 9.47487 44.4774C7.35099 42.0672 5.76708 39.1895 4.90312 36.0959C3.10322 29.9086 4.25516 23.0739 7.49498 17.5342C10.6628 11.9585 15.8465 7.49796 21.9302 5.44755C24.954 4.40436 28.1939 3.97269 31.3977 4.29644C34.5655 4.62019 37.6613 5.69936 40.3972 7.35408ZM40.3612 7.39005C37.6253 5.7713 34.5295 4.76408 31.3617 4.4763C28.1939 4.18853 24.99 4.65616 21.9662 5.69936C15.9545 7.82172 10.9148 12.2823 7.74697 17.75C4.54314 23.2178 3.3912 29.9446 5.15511 36.0599C6.01906 39.1175 7.56698 41.9593 9.61887 44.3335C11.6708 46.7436 14.2626 48.6861 17.1065 50.089C22.7942 52.9308 29.4898 53.7582 35.6455 52.1754C38.7413 51.384 41.6571 50.0171 44.177 48.0746C46.6969 46.1321 48.7487 43.65 50.1887 40.8082C55.9483 29.3691 51.3766 14.0449 40.3612 7.39005Z" stroke="url(#paint0_linear_1023_14947)" stroke-width="7.14133" stroke-miterlimit="10"/>
<path d="M6.65125 28.1396C6.0674 30.9689 6.30764 34.0688 7.65143 36.8362C8.90964 39.4741 10.8577 41.6873 12.9548 43.4918C15.0519 45.2964 17.3688 46.7968 19.7879 48.0781L19.7994 48.0842L19.8111 48.0902C22.2851 49.3544 24.8923 50.3158 27.5167 51.0014L27.5289 51.0046L27.5412 51.0076C30.1779 51.6566 33.0268 52.07 35.8799 51.8339C38.7322 51.6285 41.746 50.6566 44.0093 48.5151C46.2175 46.4911 47.5579 43.7917 48.2891 41.1352L48.2891 41.1352L48.2915 41.1262C49.7318 35.7845 49.1627 30.1549 47.8024 25.0491C47.1281 22.4049 46.1035 19.8213 44.762 17.4686L44.7621 17.4686L44.7556 17.4575C43.378 15.0812 41.5557 12.757 39.1174 11.0177L39.1072 11.0104L39.0968 11.0032C36.6631 9.31854 33.6578 8.30329 30.6457 8.32625C27.707 8.34865 24.897 9.19016 22.4352 10.302L22.4285 10.305L22.4219 10.3081C17.4497 12.6026 13.2254 16.2029 10.0959 20.5466L10.0876 20.5582L10.0794 20.5699C8.54266 22.7762 7.22935 25.3381 6.65125 28.1396ZM44.2933 25.9698C45.5037 30.7266 45.8644 35.6605 44.6372 40.1315C43.9935 42.3314 42.9418 44.27 41.3894 45.6238L41.379 45.633L41.3686 45.6422C39.8503 47.0085 37.7541 47.8228 35.5357 48.0024L35.525 48.0033L35.5144 48.0043C33.2202 48.2176 30.8217 47.9081 28.4382 47.3354C26.0676 46.7279 23.6934 45.8862 21.5201 44.7801C19.3156 43.658 17.2465 42.3108 15.4243 40.6954L15.4144 40.6866L15.4044 40.678C13.5541 39.0858 12.021 37.2811 11.0966 35.2313L11.0919 35.2209L11.0871 35.2106C10.1867 33.2801 10.012 31.0124 10.4666 28.9044C10.9483 26.7373 11.991 24.7058 13.3279 22.7864C16.0738 18.9852 19.8005 15.8338 24.1022 13.8562L24.1022 13.8562L24.1132 13.8511C26.213 12.8685 28.487 12.2575 30.7452 12.2008C32.8767 12.1473 35.1009 12.8563 36.978 14.1156C38.832 15.3592 40.3511 17.1923 41.5549 19.2689C42.7526 21.3348 43.6324 23.596 44.2933 25.9698Z" fill="url(#paint1_linear_1023_14947)" stroke="url(#paint2_linear_1023_14947)" stroke-width="3.57067"/>
<path fill-rule="evenodd" clip-rule="evenodd" d="M106.54 31.7488C106.54 26.7327 104.809 22.4584 101.312 18.9613C97.8504 15.4642 93.6821 13.7686 88.8074 13.7333C82.6962 13.7333 78.0687 16.2766 74.9248 21.2927V0.839844H70.4033V48.9518H74.9248V42.2048C78.1041 47.2209 82.6962 49.7642 88.8074 49.7642C93.6821 49.7642 97.8858 48.0333 101.312 44.5362C104.809 41.0038 106.54 36.7648 106.54 31.7488ZM98.0624 41.4277C95.4484 44.0417 92.2338 45.3487 88.4541 45.3487C84.6744 45.3487 81.4599 44.0417 78.8459 41.4277C76.2319 38.743 74.9248 35.5285 74.9248 31.7488C74.9248 27.969 76.2319 24.7545 78.8459 22.1405C81.4599 19.4558 84.6744 18.1488 88.4541 18.1488C92.2338 18.1488 95.4484 19.4558 98.0624 22.1405C100.676 24.7545 101.983 27.969 101.983 31.7488C101.983 35.5285 100.676 38.743 98.0624 41.4277ZM146.952 31.8901C146.952 27.0153 145.362 22.7411 142.218 19.1733C139.11 15.5349 135.012 13.7687 129.961 13.7333C124.662 13.7333 120.388 15.4642 117.032 18.8907C113.676 22.3525 112.016 26.5914 112.016 31.7488C112.016 36.9768 113.747 41.3217 117.102 44.6776C120.458 48.0334 124.838 49.7643 130.278 49.7643C136.955 49.7643 142.359 46.7264 145.397 41.8516L141.406 39.5202C139.498 43.0173 135.577 45.3487 130.349 45.3487C123.002 45.3487 117.562 40.9332 116.679 34.0096H146.81C146.818 33.9104 146.826 33.8131 146.834 33.7176L146.85 33.5263C146.905 32.8558 146.952 32.2915 146.952 31.8901ZM142.289 29.6293H116.679C117.562 22.8117 122.79 18.1489 129.925 18.1489C132.998 18.1489 135.754 19.2086 138.085 21.1868C140.417 23.165 141.794 25.9909 142.289 29.6293ZM163.413 29.4174C163.575 29.4583 163.739 29.4992 163.903 29.5404C169.571 30.96 176.377 32.6645 176.377 39.8735C176.377 42.8407 175.211 45.1721 172.88 47.009C170.619 48.8812 167.581 49.7643 163.943 49.7643C157.337 49.7643 152.533 46.5498 150.696 41.8516L154.546 39.5909C155.853 43.1586 159.351 45.3488 163.943 45.3488C168.394 45.3488 171.82 43.6179 171.82 39.8735C171.82 36.8002 168.676 35.0693 164.755 34.0449C164.592 34.0039 164.428 33.9628 164.263 33.9214C158.595 32.502 151.791 30.798 151.791 23.6242C151.791 20.7983 152.886 18.4668 155.076 16.63C157.337 14.7578 160.163 13.804 163.519 13.804C169.065 13.804 173.551 16.4887 175.529 20.7983L171.75 22.9884C170.443 19.7738 167.687 18.1842 163.519 18.1842C159.598 18.1842 156.313 20.0918 156.313 23.6242C156.348 26.6621 159.527 28.393 163.413 29.4174ZM186.056 44.5716C189.588 47.9981 193.898 49.729 198.914 49.729C203.93 49.729 208.204 48.0334 211.701 44.5716C215.198 41.0745 217 36.8355 217 31.7488C217 26.6621 215.198 22.3878 211.701 18.9613C208.169 15.4642 203.93 13.7333 198.914 13.7333C193.898 13.7333 189.553 15.4642 186.056 18.9613C182.558 22.4231 180.828 26.6621 180.828 31.7488C180.828 36.8002 182.558 41.0745 186.056 44.5716ZM208.522 41.4277C205.908 44.0417 202.693 45.3487 198.914 45.3487C195.169 45.3487 191.919 44.0417 189.305 41.4277C186.691 38.7431 185.384 35.5285 185.384 31.7488C185.384 27.9691 186.691 24.7546 189.305 22.1405C191.919 19.4559 195.134 18.1489 198.914 18.1489C202.693 18.1489 205.908 19.4559 208.522 22.1405C211.136 24.7546 212.443 27.9691 212.443 31.7488C212.443 35.5285 211.136 38.7431 208.522 41.4277Z" fill="#4B288C"/>
<defs>
<linearGradient id="paint0_linear_1023_14947" x1="13.5898" y1="50.4646" x2="44.5169" y2="7.97502" gradientUnits="userSpaceOnUse">
<stop stop-color="#262A95"/>
<stop offset="1" stop-color="#DD2166"/>
</linearGradient>
<linearGradient id="paint1_linear_1023_14947" x1="21.3639" y1="10.4923" x2="35.4591" y2="50.7074" gradientUnits="userSpaceOnUse">
<stop stop-color="#262A95"/>
<stop offset="1" stop-color="#DD2166"/>
</linearGradient>
<linearGradient id="paint2_linear_1023_14947" x1="21.3639" y1="10.4923" x2="35.4591" y2="50.7074" gradientUnits="userSpaceOnUse">
<stop stop-color="#262A95"/>
<stop offset="1" stop-color="#DD2166"/>
</linearGradient>
</defs>
</svg>
