<svg width="19" height="21" viewBox="0 0 19 21" fill="none" xmlns="http://www.w3.org/2000/svg">
<path d="M15.0001 11V12C15.0001 14.77 14.3361 17.445 13.0851 19.846L12.8581 20.266L11.1111 19.292C12.2711 17.212 12.9211 14.882 12.9931 12.456L13.0001 12V11H15.0001ZM9.00012 8.00001H11.0001V12L10.9951 12.379C10.9195 15.1167 9.97733 17.7598 8.30412 19.928L8.07312 20.218L6.52312 18.954C8.04951 17.0899 8.91809 14.7741 8.99412 12.366L9.00012 12V8.00001ZM10.0001 4.00001C11.3262 4.00001 12.598 4.52679 13.5357 5.46448C14.4733 6.40216 15.0001 7.67393 15.0001 9.00001H13.0001C13.0001 8.20436 12.6841 7.4413 12.1214 6.87869C11.5588 6.31608 10.7958 6.00001 10.0001 6.00001C9.20447 6.00001 8.44141 6.31608 7.8788 6.87869C7.31619 7.4413 7.00012 8.20436 7.00012 9.00001V12C7.00012 14.235 6.18012 16.344 4.72912 17.977L4.51712 18.207L3.06912 16.827C4.23908 15.6029 4.92336 13.9948 4.99412 12.303L5.00012 12V9.00001C5.00012 7.67393 5.52691 6.40216 6.46459 5.46448C7.40227 4.52679 8.67404 4.00001 10.0001 4.00001ZM10.0001 9.86453e-06C12.3871 9.86453e-06 14.6763 0.948221 16.3641 2.63605C18.0519 4.32388 19.0001 6.61306 19.0001 9.00001V12C19.0001 13.698 18.7981 15.37 18.4031 16.99L18.2641 17.529L16.3341 17.003C16.7261 15.566 16.9471 14.081 16.9921 12.568L17.0001 12V9.00001C17.0001 7.70087 16.6386 6.42737 15.956 5.32201C15.2734 4.21666 14.2967 3.32307 13.1351 2.74125C11.9735 2.15943 10.673 1.91233 9.37895 2.02762C8.08494 2.1429 6.84854 2.61601 5.80812 3.39401L4.38312 1.96801C5.9766 0.69129 7.95827 -0.00301846 10.0001 9.86453e-06ZM2.96812 3.38301L4.39412 4.80801C3.53645 5.95124 3.05118 7.3306 3.00412 8.75901L3.00012 9.00001L3.00412 11C3.00412 12.12 2.74012 13.203 2.24212 14.177L2.08612 14.467L0.349121 13.475C0.729121 12.81 0.951121 12.068 0.995121 11.292L1.00412 11V9.00001C0.998189 6.95834 1.69127 4.97615 2.96812 3.38301Z" fill="white"/>
</svg>
